ffmpeg started on 2025-04-30 at 17:35:46
Report written to "D:\Convert\FFMetrics\reports\psnr_report-6.txt"
Log level: 32
Command line:
ffmpeg -hide_banner -nostdin -i "G:\\\xc0\xed\xe8\xec\xe5\\\xce\xed\xe3\xee\xe8\xed\xe3\xe8\\!_37_\xc7\xe8\xec\xe0_2025\\JamClub\\\xcf\xee\xe4\xed\xff\xf2\xe8\xe5 \xf3\xf0\xee\xe2\xed\xff \xe2 \xee\xe4\xe8\xed\xee\xf7\xea\xf3\\\xd2\xc2-2\\JamClub_Ore_dake_Level_Up_na_Ken_Season_2_07_1080p_HEVC.mkv" -i "G:\\\xc0\xed\xe8\xec\xe5\\\xce\xed\xe3\xee\xe8\xed\xe3\xe8\\!_37_\xc7\xe8\xec\xe0_2025\\JamClub\\\xcf\xee\xe4\xed\xff\xf2\xe8\xe5 \xf3\xf0\xee\xe2\xed\xff \xe2 \xee\xe4\xe8\xed\xee\xf7\xea\xf3\\\xd2\xc2-2\\JamClub_Ore_dake_Level_Up_na_Ken_Season_2_07_1080p.mp4" -lavfi "[0:v]settb=AVTB,setpts=PTS-STARTPTS,format=pix_fmts=yuv420p10,fps=24000/1001,scale=1920:1080:flags=bicubic[main];[1:v]settb=AVTB,setpts=PTS-STARTPTS,format=pix_fmts=yuv420p,fps=24000/1001,scale=1920:1080:flags=bicubic[ref];[main][ref]psnr=eof_action=endall:stats_file='D\\:/Convert/FFMetrics/logs/psnr_logfile-6.txt'" -f null -
Input #0, matroska,webm, from 'G:\Аниме\Онгоинги\!_37_Зима_2025\JamClub\Поднятие уровня в одиночку\ТВ-2\JamClub_Ore_dake_Level_Up_na_Ken_Season_2_07_1080p_HEVC.mkv':
  Metadata:
    COMPATIBLE_BRANDS: isomiso2avc1mp41
    MAJOR_BRAND     : isom
    MINOR_VERSION   : 512
    ENCODER         : Lavf61.7.100
  Duration: 00:24:02.26, start: -0.001000, bitrate: 1390 kb/s
  Stream #0:0: Video: hevc (Main 10), yuv420p10le(tv, bt709, progressive), 1920x1080 [SAR 1:1 DAR 16:9], 23.98 fps, 23.98 tbr, 1k tbn (default)
      Metadata:
        HANDLER_NAME    : VideoHandler
        VENDOR_ID       : [0][0][0][0]
        ENCODER         : Lavc61.19.100 libx265
        BPS             : 1190872
        DURATION        : 00:24:02.190708333
        NUMBER_OF_FRAMES: 34578
        NUMBER_OF_BYTES : 214683027
        _STATISTICS_WRITING_APP: mkvpropedit v66.0.0 ('Josie') 64-bit
        _STATISTICS_WRITING_DATE_UTC: 2025-04-30 08:48:06
        _STATISTICS_TAGS: BPS DURATION NUMBER_OF_FRAMES NUMBER_OF_BYTES
  Stream #0:1(eng): Audio: aac (LC), 48000 Hz, stereo, fltp (default)
      Metadata:
        HANDLER_NAME    : SoundHandler
        VENDOR_ID       : [0][0][0][0]
        ENCODER         : Lavc61.19.100 aac
        BPS             : 195382
        DURATION        : 00:24:02.221000000
        NUMBER_OF_FRAMES: 67605
        NUMBER_OF_BYTES : 35223054
        _STATISTICS_WRITING_APP: mkvpropedit v66.0.0 ('Josie') 64-bit
        _STATISTICS_WRITING_DATE_UTC: 2025-04-30 08:48:06
        _STATISTICS_TAGS: BPS DURATION NUMBER_OF_FRAMES NUMBER_OF_BYTES
Input #1, mov,mp4,m4a,3gp,3g2,mj2, from 'G:\Аниме\Онгоинги\!_37_Зима_2025\JamClub\Поднятие уровня в одиночку\ТВ-2\JamClub_Ore_dake_Level_Up_na_Ken_Season_2_07_1080p.mp4':
  Metadata:
    major_brand     : isom
    minor_version   : 512
    compatible_brands: isomiso2avc1mp41
    encoder         : Lavf60.16.100
  Duration: 00:24:02.24, start: 0.000000, bitrate: 4451 kb/s
  Stream #1:0[0x1](und): Video: h264 (High) (avc1 / 0x31637661), yuv420p(progressive), 1920x1080 [SAR 1:1 DAR 16:9], 4253 kb/s, 23.98 fps, 23.98 tbr, 90k tbn (default)
      Metadata:
        handler_name    : VideoHandler
        vendor_id       : [0][0][0][0]
  Stream #1:1[0x2](eng): Audio: aac (LC) (mp4a / 0x6134706D), 48000 Hz, stereo, fltp, 191 kb/s (default)
      Metadata:
        handler_name    : SoundHandler
        vendor_id       : [0][0][0][0]
Stream mapping:
  Stream #0:0 (hevc) -> settb:default
  Stream #1:0 (h264) -> settb:default
  psnr:default -> Stream #0:0 (wrapped_avframe)
  Stream #0:1 -> #0:1 (aac (native) -> pcm_s16le (native))
Output #0, null, to 'pipe:':
  Metadata:
    COMPATIBLE_BRANDS: isomiso2avc1mp41
    MAJOR_BRAND     : isom
    MINOR_VERSION   : 512
    encoder         : Lavf61.7.100
  Stream #0:0: Video: wrapped_avframe, yuv420p10le(tv, bt709, progressive), 1920x1080 [SAR 1:1 DAR 16:9], q=2-31, 200 kb/s, 23.98 fps, 23.98 tbn
      Metadata:
        encoder         : Lavc61.19.100 wrapped_avframe
  Stream #0:1(eng): Audio: pcm_s16le, 48000 Hz, stereo, s16, 1536 kb/s (default)
      Metadata:
        HANDLER_NAME    : SoundHandler
        VENDOR_ID       : [0][0][0][0]
        _STATISTICS_TAGS: BPS DURATION NUMBER_OF_FRAMES NUMBER_OF_BYTES
        BPS             : 195382
        DURATION        : 00:24:02.221000000
        NUMBER_OF_FRAMES: 67605
        NUMBER_OF_BYTES : 35223054
        _STATISTICS_WRITING_APP: mkvpropedit v66.0.0 ('Josie') 64-bit
        _STATISTICS_WRITING_DATE_UTC: 2025-04-30 08:48:06
        encoder         : Lavc61.19.100 pcm_s16le
frame=  105 fps=0.0 q=-0.0 size=N/A time=00:00:04.37 bitrate=N/A speed= 8.4x    frame=  254 fps=246 q=-0.0 size=N/A time=00:00:10.59 bitrate=N/A speed=10.3x    frame=  426 fps=276 q=-0.0 size=N/A time=00:00:17.76 bitrate=N/A speed=11.5x    frame=  630 fps=305 q=-0.0 size=N/A time=00:00:26.27 bitrate=N/A speed=12.7x    frame=  804 fps=312 q=-0.0 size=N/A time=00:00:33.53 bitrate=N/A speed=  13x    frame= 1025 fps=332 q=-0.0 size=N/A time=00:00:42.75 bitrate=N/A speed=13.9x    frame= 1287 fps=356 q=-0.0 size=N/A time=00:00:53.67 bitrate=N/A speed=14.9x    frame= 1523 fps=370 q=-0.0 size=N/A time=00:01:03.52 bitrate=N/A speed=15.4x    frame= 1776 fps=383 q=-0.0 size=N/A time=00:01:14.07 bitrate=N/A speed=  16x    frame= 2016 fps=392 q=-0.0 size=N/A time=00:01:24.08 bitrate=N/A speed=16.3x    frame= 2232 fps=393 q=-0.0 size=N/A time=00:01:33.09 bitrate=N/A speed=16.4x    frame= 2472 fps=400 q=-0.0 size=N/A time=00:01:43.10 bitrate=N/A speed=16.7x    frame= 2720 fps=406 q=-0.0 size=N/A time=00:01:53.44 bitrate=N/A speed=16.9x    frame= 2919 fps=405 q=-0.0 size=N/A time=00:02:01.74 bitrate=N/A speed=16.9x    frame= 3124 fps=404 q=-0.0 size=N/A time=00:02:10.29 bitrate=N/A speed=16.8x    frame= 3315 fps=402 q=-0.0 size=N/A time=00:02:18.26 bitrate=N/A speed=16.8x    frame= 3504 fps=399 q=-0.0 size=N/A time=00:02:26.14 bitrate=N/A speed=16.7x    frame= 3692 fps=398 q=-0.0 size=N/A time=00:02:33.98 bitrate=N/A speed=16.6x    frame= 3868 fps=395 q=-0.0 size=N/A time=00:02:41.32 bitrate=N/A speed=16.5x    frame= 4004 fps=389 q=-0.0 size=N/A time=00:02:47.00 bitrate=N/A speed=16.2x    frame= 4165 fps=385 q=-0.0 size=N/A time=00:02:53.71 bitrate=N/A speed=  16x    frame= 4352 fps=384 q=-0.0 size=N/A time=00:03:01.51 bitrate=N/A speed=  16x    frame= 4504 fps=380 q=-0.0 size=N/A time=00:03:07.85 bitrate=N/A speed=15.8x    frame= 4676 fps=378 q=-0.0 size=N/A time=00:03:15.02 bitrate=N/A speed=15.8x    frame= 4825 fps=375 q=-0.0 size=N/A time=00:03:21.24 bitrate=N/A speed=15.6x    frame= 4977 fps=371 q=-0.0 size=N/A time=00:03:27.58 bitrate=N/A speed=15.5x    frame= 5168 fps=371 q=-0.0 size=N/A time=00:03:35.54 bitrate=N/A speed=15.5x    frame= 5390 fps=373 q=-0.0 size=N/A time=00:03:44.80 bitrate=N/A speed=15.6x    frame= 5637 fps=377 q=-0.0 size=N/A time=00:03:55.10 bitrate=N/A speed=15.7x    frame= 5895 fps=381 q=-0.0 size=N/A time=00:04:05.87 bitrate=N/A speed=15.9x    frame= 6142 fps=384 q=-0.0 size=N/A time=00:04:16.17 bitrate=N/A speed=  16x    frame= 6389 fps=387 q=-0.0 size=N/A time=00:04:26.47 bitrate=N/A speed=16.1x    frame= 6619 fps=389 q=-0.0 size=N/A time=00:04:36.06 bitrate=N/A speed=16.2x    frame= 6864 fps=392 q=-0.0 size=N/A time=00:04:46.28 bitrate=N/A speed=16.3x    frame= 7116 fps=394 q=-0.0 size=N/A time=00:04:56.79 bitrate=N/A speed=16.4x    frame= 7358 fps=397 q=-0.0 size=N/A time=00:05:06.88 bitrate=N/A speed=16.5x    frame= 7602 fps=398 q=-0.0 size=N/A time=00:05:17.06 bitrate=N/A speed=16.6x    frame= 7850 fps=401 q=-0.0 size=N/A time=00:05:27.41 bitrate=N/A speed=16.7x    frame= 8083 fps=402 q=-0.0 size=N/A time=00:05:37.12 bitrate=N/A speed=16.8x    frame= 8322 fps=404 q=-0.0 size=N/A time=00:05:47.09 bitrate=N/A speed=16.8x    frame= 8524 fps=403 q=-0.0 size=N/A time=00:05:55.52 bitrate=N/A speed=16.8x    frame= 8739 fps=404 q=-0.0 size=N/A time=00:06:04.48 bitrate=N/A speed=16.8x    frame= 8958 fps=404 q=-0.0 size=N/A time=00:06:13.62 bitrate=N/A speed=16.9x    frame= 9187 fps=405 q=-0.0 size=N/A time=00:06:23.17 bitrate=N/A speed=16.9x    frame= 9418 fps=406 q=-0.0 size=N/A time=00:06:32.80 bitrate=N/A speed=16.9x    frame= 9649 fps=407 q=-0.0 size=N/A time=00:06:42.44 bitrate=N/A speed=  17x    frame= 9835 fps=406 q=-0.0 size=N/A time=00:06:50.20 bitrate=N/A speed=16.9x    frame= 9988 fps=404 q=-0.0 size=N/A time=00:06:56.58 bitrate=N/A speed=16.8x    frame=10189 fps=403 q=-0.0 size=N/A time=00:07:04.96 bitrate=N/A speed=16.8x    frame=10399 fps=403 q=-0.0 size=N/A time=00:07:13.72 bitrate=N/A speed=16.8x    frame=10650 fps=405 q=-0.0 size=N/A time=00:07:24.19 bitrate=N/A speed=16.9x    frame=10854 fps=405 q=-0.0 size=N/A time=00:07:32.70 bitrate=N/A speed=16.9x    frame=11079 fps=405 q=-0.0 size=N/A time=00:07:42.08 bitrate=N/A speed=16.9x    frame=11288 fps=406 q=-0.0 size=N/A time=00:07:50.80 bitrate=N/A speed=16.9x    frame=11507 fps=406 q=-0.0 size=N/A time=00:07:59.93 bitrate=N/A speed=16.9x    frame=11760 fps=407 q=-0.0 size=N/A time=00:08:10.49 bitrate=N/A speed=  17x    frame=11983 fps=408 q=-0.0 size=N/A time=00:08:19.79 bitrate=N/A speed=  17x    frame=12213 fps=408 q=-0.0 size=N/A time=00:08:29.38 bitrate=N/A speed=  17x    frame=12440 fps=409 q=-0.0 size=N/A time=00:08:38.85 bitrate=N/A speed=17.1x    frame=12640 fps=409 q=-0.0 size=N/A time=00:08:47.19 bitrate=N/A speed=  17x    frame=12857 fps=409 q=-0.0 size=N/A time=00:08:56.24 bitrate=N/A speed=  17x    frame=13075 fps=409 q=-0.0 size=N/A time=00:09:05.33 bitrate=N/A speed=17.1x    frame=13287 fps=409 q=-0.0 size=N/A time=00:09:14.17 bitrate=N/A speed=17.1x    frame=13533 fps=410 q=-0.0 size=N/A time=00:09:24.43 bitrate=N/A speed=17.1x    frame=13794 fps=412 q=-0.0 size=N/A time=00:09:35.32 bitrate=N/A speed=17.2x    frame=14040 fps=413 q=-0.0 size=N/A time=00:09:45.58 bitrate=N/A speed=17.2x    frame=14278 fps=413 q=-0.0 size=N/A time=00:09:55.51 bitrate=N/A speed=17.2x    frame=14497 fps=413 q=-0.0 size=N/A time=00:10:04.64 bitrate=N/A speed=17.2x    frame=14758 fps=415 q=-0.0 size=N/A time=00:10:15.53 bitrate=N/A speed=17.3x    frame=14986 fps=415 q=-0.0 size=N/A time=00:10:25.04 bitrate=N/A speed=17.3x    frame=15214 fps=416 q=-0.0 size=N/A time=00:10:34.55 bitrate=N/A speed=17.3x    frame=15462 fps=416 q=-0.0 size=N/A time=00:10:44.89 bitrate=N/A speed=17.4x    frame=15673 fps=416 q=-0.0 size=N/A time=00:10:53.69 bitrate=N/A speed=17.4x    frame=15875 fps=416 q=-0.0 size=N/A time=00:11:02.11 bitrate=N/A speed=17.3x    frame=16100 fps=416 q=-0.0 size=N/A time=00:11:11.50 bitrate=N/A speed=17.4x    frame=16343 fps=417 q=-0.0 size=N/A time=00:11:21.63 bitrate=N/A speed=17.4x    frame=16588 fps=418 q=-0.0 size=N/A time=00:11:31.85 bitrate=N/A speed=17.4x    frame=16832 fps=419 q=-0.0 size=N/A time=00:11:42.03 bitrate=N/A speed=17.5x    frame=17073 fps=419 q=-0.0 size=N/A time=00:11:52.12 bitrate=N/A speed=17.5x    frame=17313 fps=420 q=-0.0 size=N/A time=00:12:02.09 bitrate=N/A speed=17.5x    frame=17530 fps=420 q=-0.0 size=N/A time=00:12:11.14 bitrate=N/A speed=17.5x    frame=17782 fps=421 q=-0.0 size=N/A time=00:12:21.65 bitrate=N/A speed=17.5x    frame=18036 fps=421 q=-0.0 size=N/A time=00:12:32.25 bitrate=N/A speed=17.6x    frame=18235 fps=421 q=-0.0 size=N/A time=00:12:40.55 bitrate=N/A speed=17.6x    frame=18476 fps=422 q=-0.0 size=N/A time=00:12:50.60 bitrate=N/A speed=17.6x    frame=18708 fps=422 q=-0.0 size=N/A time=00:13:00.27 bitrate=N/A speed=17.6x    frame=18939 fps=422 q=-0.0 size=N/A time=00:13:09.91 bitrate=N/A speed=17.6x    frame=19172 fps=423 q=-0.0 size=N/A time=00:13:19.63 bitrate=N/A speed=17.6x    frame=19419 fps=423 q=-0.0 size=N/A time=00:13:29.93 bitrate=N/A speed=17.7x    frame=19642 fps=423 q=-0.0 size=N/A time=00:13:39.23 bitrate=N/A speed=17.7x    frame=19870 fps=423 q=-0.0 size=N/A time=00:13:48.74 bitrate=N/A speed=17.7x    frame=20085 fps=423 q=-0.0 size=N/A time=00:13:57.71 bitrate=N/A speed=17.7x    frame=20326 fps=424 q=-0.0 size=N/A time=00:14:07.76 bitrate=N/A speed=17.7x    frame=20573 fps=424 q=-0.0 size=N/A time=00:14:18.06 bitrate=N/A speed=17.7x    frame=20810 fps=425 q=-0.0 size=N/A time=00:14:27.95 bitrate=N/A speed=17.7x    frame=21060 fps=425 q=-0.0 size=N/A time=00:14:38.37 bitrate=N/A speed=17.7x    frame=21264 fps=425 q=-0.0 size=N/A time=00:14:46.88 bitrate=N/A speed=17.7x    frame=21485 fps=425 q=-0.0 size=N/A time=00:14:56.10 bitrate=N/A speed=17.7x    frame=21721 fps=425 q=-0.0 size=N/A time=00:15:05.94 bitrate=N/A speed=17.7x    frame=21935 fps=425 q=-0.0 size=N/A time=00:15:14.87 bitrate=N/A speed=17.7x    frame=22152 fps=425 q=-0.0 size=N/A time=00:15:23.92 bitrate=N/A speed=17.7x    frame=22378 fps=426 q=-0.0 size=N/A time=00:15:33.34 bitrate=N/A speed=17.7x    frame=22601 fps=426 q=-0.0 size=N/A time=00:15:42.65 bitrate=N/A speed=17.8x    frame=22839 fps=426 q=-0.0 size=N/A time=00:15:52.57 bitrate=N/A speed=17.8x    frame=23031 fps=425 q=-0.0 size=N/A time=00:16:00.58 bitrate=N/A speed=17.7x    frame=23255 fps=426 q=-0.0 size=N/A time=00:16:09.92 bitrate=N/A speed=17.7x    frame=23503 fps=426 q=-0.0 size=N/A time=00:16:20.27 bitrate=N/A speed=17.8x    frame=23708 fps=426 q=-0.0 size=N/A time=00:16:28.82 bitrate=N/A speed=17.8x    frame=23946 fps=426 q=-0.0 size=N/A time=00:16:38.74 bitrate=N/A speed=17.8x    frame=24116 fps=425 q=-0.0 size=N/A time=00:16:45.83 bitrate=N/A speed=17.7x    frame=24300 fps=425 q=-0.0 size=N/A time=00:16:53.51 bitrate=N/A speed=17.7x    frame=24498 fps=424 q=-0.0 size=N/A time=00:17:01.77 bitrate=N/A speed=17.7x    frame=24687 fps=424 q=-0.0 size=N/A time=00:17:09.65 bitrate=N/A speed=17.7x    frame=24922 fps=424 q=-0.0 size=N/A time=00:17:19.45 bitrate=N/A speed=17.7x    frame=25157 fps=424 q=-0.0 size=N/A time=00:17:29.25 bitrate=N/A speed=17.7x    frame=25395 fps=425 q=-0.0 size=N/A time=00:17:39.18 bitrate=N/A speed=17.7x    frame=25600 fps=424 q=-0.0 size=N/A time=00:17:47.73 bitrate=N/A speed=17.7x    frame=25785 fps=424 q=-0.0 size=N/A time=00:17:55.44 bitrate=N/A speed=17.7x    frame=25974 fps=423 q=-0.0 size=N/A time=00:18:03.33 bitrate=N/A speed=17.7x    frame=26152 fps=423 q=-0.0 size=N/A time=00:18:10.75 bitrate=N/A speed=17.6x    frame=26337 fps=422 q=-0.0 size=N/A time=00:18:18.47 bitrate=N/A speed=17.6x    frame=26498 fps=421 q=-0.0 size=N/A time=00:18:25.18 bitrate=N/A speed=17.6x    frame=26678 fps=421 q=-0.0 size=N/A time=00:18:32.69 bitrate=N/A speed=17.5x    frame=26865 fps=420 q=-0.0 size=N/A time=00:18:40.49 bitrate=N/A speed=17.5x    frame=27034 fps=419 q=-0.0 size=N/A time=00:18:47.54 bitrate=N/A speed=17.5x    frame=27199 fps=419 q=-0.0 size=N/A time=00:18:54.42 bitrate=N/A speed=17.5x    frame=27407 fps=419 q=-0.0 size=N/A time=00:19:03.10 bitrate=N/A speed=17.5x    frame=27653 fps=419 q=-0.0 size=N/A time=00:19:13.36 bitrate=N/A speed=17.5x    frame=27895 fps=419 q=-0.0 size=N/A time=00:19:23.45 bitrate=N/A speed=17.5x    frame=28115 fps=419 q=-0.0 size=N/A time=00:19:32.62 bitrate=N/A speed=17.5x    frame=28355 fps=420 q=-0.0 size=N/A time=00:19:42.63 bitrate=N/A speed=17.5x    frame=28608 fps=420 q=-0.0 size=N/A time=00:19:53.19 bitrate=N/A speed=17.5x    frame=28831 fps=420 q=-0.0 size=N/A time=00:20:02.49 bitrate=N/A speed=17.5x    frame=29062 fps=421 q=-0.0 size=N/A time=00:20:12.12 bitrate=N/A speed=17.5x    frame=29267 fps=420 q=-0.0 size=N/A time=00:20:20.67 bitrate=N/A speed=17.5x    frame=29507 fps=421 q=-0.0 size=N/A time=00:20:30.68 bitrate=N/A speed=17.5x    frame=29714 fps=421 q=-0.0 size=N/A time=00:20:39.32 bitrate=N/A speed=17.5x    frame=29957 fps=421 q=-0.0 size=N/A time=00:20:49.45 bitrate=N/A speed=17.6x    frame=30190 fps=421 q=-0.0 size=N/A time=00:20:59.17 bitrate=N/A speed=17.6x    frame=30403 fps=421 q=-0.0 size=N/A time=00:21:08.05 bitrate=N/A speed=17.6x    frame=30619 fps=421 q=-0.0 size=N/A time=00:21:17.06 bitrate=N/A speed=17.6x    frame=30835 fps=421 q=-0.0 size=N/A time=00:21:26.07 bitrate=N/A speed=17.6x    frame=31067 fps=421 q=-0.0 size=N/A time=00:21:35.75 bitrate=N/A speed=17.6x    frame=31266 fps=421 q=-0.0 size=N/A time=00:21:44.05 bitrate=N/A speed=17.6x    frame=31473 fps=421 q=-0.0 size=N/A time=00:21:52.68 bitrate=N/A speed=17.6x    frame=31684 fps=421 q=-0.0 size=N/A time=00:22:01.48 bitrate=N/A speed=17.6x    frame=31881 fps=421 q=-0.0 size=N/A time=00:22:09.70 bitrate=N/A speed=17.5x    frame=32068 fps=420 q=-0.0 size=N/A time=00:22:17.50 bitrate=N/A speed=17.5x    frame=32269 fps=420 q=-0.0 size=N/A time=00:22:25.88 bitrate=N/A speed=17.5x    frame=32471 fps=420 q=-0.0 size=N/A time=00:22:34.31 bitrate=N/A speed=17.5x    frame=32672 fps=420 q=-0.0 size=N/A time=00:22:42.69 bitrate=N/A speed=17.5x    frame=32892 fps=420 q=-0.0 size=N/A time=00:22:51.87 bitrate=N/A speed=17.5x    frame=33094 fps=420 q=-0.0 size=N/A time=00:23:00.29 bitrate=N/A speed=17.5x    frame=33313 fps=420 q=-0.0 size=N/A time=00:23:09.42 bitrate=N/A speed=17.5x    frame=33495 fps=419 q=-0.0 size=N/A time=00:23:17.02 bitrate=N/A speed=17.5x    frame=33662 fps=418 q=-0.0 size=N/A time=00:23:23.98 bitrate=N/A speed=17.5x    frame=33838 fps=418 q=-0.0 size=N/A time=00:23:31.32 bitrate=N/A speed=17.4x    frame=34027 fps=418 q=-0.0 size=N/A time=00:23:39.20 bitrate=N/A speed=17.4x    frame=34236 fps=418 q=-0.0 size=N/A time=00:23:47.92 bitrate=N/A speed=17.4x    frame=34439 fps=417 q=-0.0 size=N/A time=00:23:56.39 bitrate=N/A speed=17.4x    [Parsed_psnr_10 @ 0000021a8a976480] PSNR y:48.683947 u:50.334034 v:50.061965 average:49.131873 min:37.313549 max:inf
[out#0/null @ 0000021a87bfec00] video:14858KiB audio:270420KiB subtitle:0KiB other streams:0KiB global headers:0KiB muxing overhead: unknown
frame=34578 fps=417 q=-0.0 Lsize=N/A time=00:24:02.19 bitrate=N/A speed=17.4x    
